<svg width="95" height="95" viewBox="0 0 95 95" fill="none" xmlns="http://www.w3.org/2000/svg">
<path d="M55.3801 42.32C55.3801 41.37 54.6101 40.59 53.6501 40.59H31.14C30.19 40.59 29.41 39.82 29.41 38.86V31.79C29.41 30.84 30.18 30.06 31.14 30.06H87.8C88.57 30.06 89.08 29.26 88.77 28.56C82.37 14.19 68.7101 3.74999 52.4501 1.89999C24.5301 -1.27001 0.210051 21.84 1.95005 49.88C3.43005 73.62 23.15 92.43 47.2701 92.43C49.5101 92.43 51.71 92.27 53.87 91.95C54.74 91.82 55.3801 91.08 55.3801 90.21V42.32Z" fill="#C0F20C"/>
<path d="M69.0301 40.6C68.1001 40.6 67.3401 41.36 67.3401 42.29V85.93C67.3401 86.77 68.2401 87.31 68.9801 86.9C83.1001 79.2 92.6701 64.23 92.6701 47.01C92.6701 45.28 92.5801 43.64 92.3901 41.98C92.3001 41.18 91.6301 40.57 90.8201 40.57L69.0301 40.6Z" fill="#C0F20C"/>
</svg>
